<svg width="250" height="52" viewBox="0 0 250 52" fill="none" xmlns="http://www.w3.org/2000/svg">
<path d="M10.8952 25.0241H10.9062C10.758 19.7433 5.95226 15.503 0.00537109 15.4395V25.7471C0.274188 38.9615 11.6248 49.7626 26.1465 51.062V38.3166C26.0422 38.3166 25.9435 38.3313 25.8447 38.3313C17.5937 38.3313 10.9007 32.3763 10.9007 25.0241H10.8952Z" fill="#15FFEB"/>
<path d="M0 0V11.9638C8.22909 11.9882 14.8892 17.9334 14.8892 25.266H14.8782C15.0263 30.586 19.9034 34.8556 25.9107 34.8556C25.9875 34.8556 26.0588 34.8458 26.1356 34.8458V25.7497H26.0807C26.0862 12.4181 14.6752 1.44601 0 0Z" fill="#004BD6"/>
<mask id="mask0_1590_2944" style="mask-type:alpha" maskUnits="userSpaceOnUse" x="35" y="6" width="215" height="39">
<path fill-rule="evenodd" clip-rule="evenodd" d="M79.4669 6.38867H71.5352V13.999V21.6093V29.2196V44.4402H79.4669V29.2196H95.3304V44.4402H103.262V29.2196L119.126 29.2196V44.4402H127.057V29.2196L142.921 29.2196V21.6093L127.057 21.6093V13.999L142.921 13.999V6.38867H127.057V13.999L119.126 13.999V6.38867H103.262V13.999L95.3304 13.999V6.38867H79.4669ZM103.262 13.999L119.126 13.999V21.6093L103.262 21.6093V13.999ZM95.3304 21.6093V13.999L79.4669 13.999V21.6093H95.3304Z" fill="black"/>
<path fill-rule="evenodd" clip-rule="evenodd" d="M223.531 15.1131L223.536 15.1148L225.74 7.14844H229.198L231.65 16.0085L231.651 16.0079L235.887 31.4024L242.561 7.14844H250L239.739 44.4389H232.036L227.468 27.8398L222.901 44.4389H215.198L204.937 7.14844H212.375L219.049 31.4024L223.531 15.1131Z" fill="black"/>
<path fill-rule="evenodd" clip-rule="evenodd" d="M51.7058 6.38867C42.9446 6.38867 35.8423 13.4871 35.8423 22.2435V28.5854C35.8423 37.3418 42.9446 44.4402 51.7058 44.4402C60.467 44.4402 67.5693 37.3418 67.5693 28.5854V22.2435C67.5693 13.4871 60.467 6.38867 51.7058 6.38867ZM51.7058 13.238C46.8872 13.238 42.9809 17.1421 42.9809 21.9581V28.8708C42.9809 33.6868 46.8872 37.5909 51.7058 37.5909C56.5245 37.5909 60.4308 33.6868 60.4308 28.8708V21.9581C60.4308 17.1421 56.5245 13.238 51.7058 13.238Z" fill="black"/>
<path fill-rule="evenodd" clip-rule="evenodd" d="M188.925 6.38867C180.164 6.38867 173.062 13.4871 173.062 22.2435V28.5854C173.062 37.3418 180.164 44.4402 188.925 44.4402C197.686 44.4402 204.789 37.3418 204.789 28.5854V22.2435C204.789 13.4871 197.686 6.38867 188.925 6.38867ZM188.925 13.238C184.107 13.238 180.2 17.1421 180.2 21.9581V28.8708C180.2 33.6868 184.107 37.5909 188.925 37.5909C193.744 37.5909 197.65 33.6868 197.65 28.8708V21.9581C197.65 17.1421 193.744 13.238 188.925 13.238Z" fill="black"/>
</mask>
<g mask="url(#mask0_1590_2944)">
<rect x="19.9788" y="-3.50586" width="237.953" height="57.8383" fill="url(#paint0_linear_1590_2944)"/>
</g>
<rect x="71.5366" y="6.38867" width="7.92973" height="7.60609" fill="#15FFEB"/>
<path d="M155.069 36.8301H170.932V44.4404H147.137V29.2217H142.921V21.6113H147.137V6.38867H155.069V36.8301Z" fill="#004BD6"/>
<defs>
<linearGradient id="paint0_linear_1590_2944" x1="19.9788" y1="25.4133" x2="257.932" y2="25.4133" gradientUnits="userSpaceOnUse">
<stop offset="1" stop-color="#004BD6"/>
</linearGradient>
</defs>
</svg>
