<svg width="1051" height="500" viewBox="0 0 1051 500" fill="none" xmlns="http://www.w3.org/2000/svg">
<path d="M536.696 98.7747V197.047H742.455V98.7747H843.835V197.047H1049.59V98.7747H1150.97V197.047H1355.73V294.319H1150.97V490.862H1049.59V294.319H843.835V490.862H742.455V294.319H536.696V490.862H435.316V98.7747H536.696ZM1355.73 0.50325V97.7747H1151.97V0.50325H1355.73ZM1048.59 0.50325V97.7747H844.835V0.50325H1048.59ZM741.455 0.50325V97.7747H537.696V0.50325H741.455Z" stroke="#0D47B4" stroke-opacity="0.2"/>
<path d="M204.76 9.14151C317.569 9.14174 409.018 100.58 409.019 213.374V295.267C409.018 408.062 317.569 499.5 204.76 499.5C91.9505 499.5 0.500099 408.062 0.5 295.267V213.374C0.500148 100.58 91.9505 9.14151 204.76 9.14151ZM204.76 96.5858C142.287 96.5858 91.6416 147.224 91.6416 209.689V298.953C91.6418 361.418 142.287 412.056 204.76 412.056C267.233 412.055 317.877 361.417 317.877 298.952V209.689C317.877 147.224 267.233 96.5861 204.76 96.5858Z" stroke="#0D47B4" stroke-opacity="0.2"/>
</svg>
