<svg width="22" height="48" viewBox="0 0 22 48" fill="none" xmlns="http://www.w3.org/2000/svg">
<path d="M9.11708 23.5241H9.12715C9.00377 18.5615 4.97776 14.5732 0.00251645 14.5153V24.2065H0C0.226605 36.6244 9.7264 46.7789 21.8775 48V36.0176C21.7919 36.0176 21.7088 36.0302 21.6232 36.0302C14.7167 36.0302 9.11708 30.4306 9.11708 23.5241Z" fill="#15FFEB"/>
<path d="M0 0V11.2472C6.88628 11.2698 12.4633 16.8594 12.4633 23.7507H12.4532C12.5791 28.7486 16.6605 32.7646 21.6886 32.7646C21.7516 32.7646 21.812 32.757 21.8775 32.7545V24.2039H21.8321C21.8321 11.6727 12.282 1.35963 0.00251645 0H0Z" fill="#004BD6"/>
</svg>
