<svg width="320" height="57" viewBox="0 0 320 57" fill="none" xmlns="http://www.w3.org/2000/svg">
<mask id="mask0_1970_785" style="mask-type:alpha" maskUnits="userSpaceOnUse" x="0" y="0" width="320" height="57">
<path fill-rule="evenodd" clip-rule="evenodd" d="M65.1878 0.00415039H53.3359V11.3805V22.7569V34.1333V56.886H65.1878V34.1333H88.8915V56.886H100.743V34.1333L124.447 34.1333V56.886H136.299V34.1333L160.003 34.1333V22.7569L136.299 22.7569V11.3805L160.003 11.3805V0.00415039H136.299V11.3805L124.447 11.3805V0.00415039H100.743V11.3805L88.8915 11.3805V0.00415039H65.1878ZM100.743 11.3805L124.447 11.3805V22.7569L100.743 22.7569V11.3805ZM88.8915 22.7569V11.3805L65.1878 11.3805V22.7569H88.8915Z" fill="black"/>
<path fill-rule="evenodd" clip-rule="evenodd" d="M280.449 13.0509L280.456 13.0533L283.749 1.14478H288.917L292.579 14.3893L292.582 14.3885L298.911 37.4011L308.884 1.14478H319.999L304.666 56.889H293.156L286.332 32.0756L279.507 56.889H267.997L252.664 1.14478H263.779L273.752 37.4011L280.449 13.0509Z" fill="black"/>
<path fill-rule="evenodd" clip-rule="evenodd" d="M23.7037 0.00415039C10.6125 0.00415039 0 10.6154 0 23.7049V33.1853C0 46.2748 10.6125 56.886 23.7037 56.886C36.7949 56.886 47.4074 46.2748 47.4074 33.1853V23.7049C47.4074 10.6154 36.7949 0.00415039 23.7037 0.00415039ZM23.7037 10.2429C16.5036 10.2429 10.6667 16.0791 10.6667 23.2784V33.6119C10.6667 40.8112 16.5036 46.6473 23.7037 46.6473C30.9039 46.6473 36.7408 40.8111 36.7408 33.6119V23.2783C36.7408 16.0791 30.9039 10.2429 23.7037 10.2429Z" fill="black"/>
<path fill-rule="evenodd" clip-rule="evenodd" d="M228.743 0.00415039C215.652 0.00415039 205.039 10.6154 205.039 23.7049V33.1853C205.039 46.2748 215.652 56.886 228.743 56.886C241.834 56.886 252.447 46.2748 252.447 33.1853V23.7049C252.447 10.6154 241.834 0.00415039 228.743 0.00415039ZM228.743 10.2429C221.543 10.2429 215.706 16.0791 215.706 23.2784V33.6119C215.706 40.8112 221.543 46.6473 228.743 46.6473C235.943 46.6473 241.78 40.8111 241.78 33.6119V23.2783C241.78 16.0791 235.943 10.2429 228.743 10.2429Z" fill="black"/>
</mask>
<g mask="url(#mask0_1970_785)">
<rect x="-23.7031" y="-14.7847" width="355.556" height="86.4605" fill="url(#paint0_linear_1970_785)"/>
</g>
<mask id="mask1_1970_785" style="mask-type:alpha" maskUnits="userSpaceOnUse" x="0" y="0" width="320" height="57">
<path fill-rule="evenodd" clip-rule="evenodd" d="M65.1878 0.00415039H53.3359V11.3805V22.7569V34.1333V56.886H65.1878V34.1333H88.8915V56.886H100.743V34.1333L124.447 34.1333V56.886H136.299V34.1333L160.003 34.1333V22.7569L136.299 22.7569V11.3805L160.003 11.3805V0.00415039H136.299V11.3805L124.447 11.3805V0.00415039H100.743V11.3805L88.8915 11.3805V0.00415039H65.1878ZM100.743 11.3805L124.447 11.3805V22.7569L100.743 22.7569V11.3805ZM88.8915 22.7569V11.3805L65.1878 11.3805V22.7569H88.8915Z" fill="black"/>
<path fill-rule="evenodd" clip-rule="evenodd" d="M280.449 13.0509L280.456 13.0533L283.749 1.14478H288.917L292.579 14.3893L292.582 14.3885L298.911 37.4011L308.884 1.14478H319.999L304.666 56.889H293.156L286.332 32.0756L279.507 56.889H267.997L252.664 1.14478H263.779L273.752 37.4011L280.449 13.0509Z" fill="black"/>
<path fill-rule="evenodd" clip-rule="evenodd" d="M23.7037 0.00415039C10.6125 0.00415039 0 10.6154 0 23.7049V33.1853C0 46.2748 10.6125 56.886 23.7037 56.886C36.7949 56.886 47.4074 46.2748 47.4074 33.1853V23.7049C47.4074 10.6154 36.7949 0.00415039 23.7037 0.00415039ZM23.7037 10.2429C16.5036 10.2429 10.6667 16.0791 10.6667 23.2784V33.6119C10.6667 40.8112 16.5036 46.6473 23.7037 46.6473C30.9039 46.6473 36.7408 40.8111 36.7408 33.6119V23.2783C36.7408 16.0791 30.9039 10.2429 23.7037 10.2429Z" fill="black"/>
<path fill-rule="evenodd" clip-rule="evenodd" d="M228.743 0.00415039C215.652 0.00415039 205.039 10.6154 205.039 23.7049V33.1853C205.039 46.2748 215.652 56.886 228.743 56.886C241.834 56.886 252.447 46.2748 252.447 33.1853V23.7049C252.447 10.6154 241.834 0.00415039 228.743 0.00415039ZM228.743 10.2429C221.543 10.2429 215.706 16.0791 215.706 23.2784V33.6119C215.706 40.8112 221.543 46.6473 228.743 46.6473C235.943 46.6473 241.78 40.8111 241.78 33.6119V23.2783C241.78 16.0791 235.943 10.2429 228.743 10.2429Z" fill="black"/>
</mask>
<g mask="url(#mask1_1970_785)">
<rect x="-23.7031" y="-14.7847" width="355.556" height="86.4605" fill="url(#paint1_linear_1970_785)"/>
</g>
<rect x="53.5469" y="0.00439453" width="11.8488" height="11.3701" fill="#15FFEB"/>
<path d="M178.37 45.5049H202.074V56.8818H166.519V34.1299H160.219V22.7539H166.519V0H178.37V45.5049Z" fill="white"/>
<defs>
<linearGradient id="paint0_linear_1970_785" x1="-23.7031" y1="28.4456" x2="331.853" y2="28.4456" gradientUnits="userSpaceOnUse">
<stop offset="1" stop-color="white"/>
</linearGradient>
<linearGradient id="paint1_linear_1970_785" x1="-23.7031" y1="28.4456" x2="331.853" y2="28.4456" gradientUnits="userSpaceOnUse">
<stop offset="1" stop-color="white"/>
</linearGradient>
</defs>
</svg>
