<svg width="145" height="23" viewBox="0 0 145 23" fill="none" xmlns="http://www.w3.org/2000/svg">
<mask id="mask0_1970_689" style="mask-type:alpha" maskUnits="userSpaceOnUse" x="16" y="0" width="129" height="23">
<path fill-rule="evenodd" clip-rule="evenodd" d="M42.2778 0H37.5V4.5861V9.17221V13.7583V22.9305H42.2778V13.7583H51.8333V22.9305H56.6111V13.7583L66.1667 13.7583V22.9305H70.9445V13.7583L80.5 13.7583V9.17221L70.9445 9.17221V4.5861L80.5 4.5861V0H70.9445V4.5861L66.1667 4.5861V0H56.6111V4.5861L51.8333 4.5861V0H42.2778ZM56.6111 4.5861L66.1667 4.5861V9.17221L56.6111 9.17221V4.5861ZM51.8333 9.17221V4.5861L42.2778 4.5861V9.17221H51.8333Z" fill="black"/>
<path fill-rule="evenodd" clip-rule="evenodd" d="M129.056 5.25816L129.059 5.25914L130.387 0.458496H132.47L133.946 5.79771L133.947 5.79736L136.499 15.0743L140.519 0.458496H145L138.819 22.9304H134.179L131.428 12.9275L128.676 22.9304H124.036L117.855 0.458496H122.336L126.356 15.0743L129.056 5.25816Z" fill="black"/>
<path fill-rule="evenodd" clip-rule="evenodd" d="M25.5556 0C20.2782 0 16 4.27764 16 9.55438V13.3761C16 18.6529 20.2782 22.9305 25.5556 22.9305C30.833 22.9305 35.1111 18.6529 35.1111 13.3761V9.55438C35.1111 4.27764 30.833 0 25.5556 0ZM25.5556 4.1275C22.653 4.1275 20.3 6.48021 20.3 9.38241V13.5481C20.3 16.4503 22.653 18.803 25.5556 18.803C28.4581 18.803 30.8111 16.4503 30.8111 13.5481V9.38241C30.8111 6.4802 28.4581 4.1275 25.5556 4.1275Z" fill="black"/>
<path fill-rule="evenodd" clip-rule="evenodd" d="M108.212 0C102.934 0 98.6562 4.27764 98.6562 9.55438V13.3761C98.6562 18.6529 102.934 22.9305 108.212 22.9305C113.489 22.9305 117.767 18.6529 117.767 13.3761V9.55438C117.767 4.27764 113.489 0 108.212 0ZM108.212 4.1275C105.309 4.1275 102.956 6.48021 102.956 9.38241V13.5481C102.956 16.4503 105.309 18.803 108.212 18.803C111.114 18.803 113.467 16.4503 113.467 13.5481V9.38241C113.467 6.4802 111.114 4.1275 108.212 4.1275Z" fill="black"/>
</mask>
<g mask="url(#mask0_1970_689)">
<rect x="6" y="-6" width="143.333" height="34.8544" fill="url(#paint0_linear_1970_689)"/>
</g>
<rect x="37.5" width="4.77656" height="4.58356" fill="#15FFEB"/>
<path d="M87.8174 18.3447H97.373V22.9307H83.0391V13.7588H80.5V9.17188H83.0391V0H87.8174V18.3447Z" fill="white"/>
<path d="M4.89402 11.2376H4.89895C4.83243 8.86624 2.67438 6.96211 0.00390625 6.93359V11.5623C0.124619 17.4962 5.22167 22.3465 11.7426 22.93V17.2067C11.6958 17.2067 11.6515 17.2133 11.6071 17.2133C7.90199 17.2133 4.89648 14.5391 4.89648 11.2376H4.89402Z" fill="#15FFEB"/>
<path d="M0 0.000244141V5.3726C3.6953 5.38357 6.68603 8.0533 6.68603 11.346H6.6811C6.74762 13.735 8.9377 15.6523 11.6353 15.6523C11.6698 15.6523 11.7018 15.6479 11.7363 15.6479V11.5632H11.7116C11.7141 5.57662 6.58995 0.649578 0 0.000244141Z" fill="#004BD6"/>
<defs>
<linearGradient id="paint0_linear_1970_689" x1="6" y1="11.4272" x2="149.333" y2="11.4272" gradientUnits="userSpaceOnUse">
<stop offset="1" stop-color="white"/>
</linearGradient>
</defs>
</svg>
