<svg width="1920" height="1086" viewBox="0 0 1920 1086" fill="none" xmlns="http://www.w3.org/2000/svg">
<mask id="mask0_2042_992" style="mask-type:alpha" maskUnits="userSpaceOnUse" x="0" y="0" width="1920" height="1086">
<path d="M1920 1086H0V0H1920V1086Z" fill="white"/>
</mask>
<g mask="url(#mask0_2042_992)">
<path d="M1884.5 0L2197.5 195.409L2024.5 1086H995.581L821 666.5L1884.5 0Z" fill="#F7F9FA"/>
<path d="M-516.304 684.774V783.046H-310.545V684.774H-209.165V783.046H-3.40527V684.774H97.9736V783.046H302.733V880.318H97.9736V1076.86H-3.40527V880.318H-209.165V1076.86H-310.545V880.318H-516.304V1076.86H-617.684V684.774H-516.304ZM302.733 586.502V683.774H98.9736V586.502H302.733ZM-4.40527 586.502V683.774H-208.165V586.502H-4.40527ZM-311.545 586.502V683.774H-515.304V586.502H-311.545Z" stroke="#0D47B4" stroke-opacity="0.2"/>
<path d="M1104.25 596.355L1190.29 909.178L1190.77 910.931L1191.25 909.178L1248.97 699.352L1249.03 699.374L1249.17 698.857L1277.51 596.355H1321.39L1352.93 710.398L1353.07 710.915L1353.09 710.907L1407.63 909.178L1408.11 910.931L1408.59 909.178L1494.64 596.355H1589.62L1457.44 1076.89H1358.78L1299.92 862.91L1299.44 861.157L1298.96 862.91L1240.1 1076.89H1141.44L1009.27 596.355H1104.25Z" stroke="#0D47B4" stroke-opacity="0.2"/>
<path d="M802.006 586.502C914.815 586.503 1006.26 677.94 1006.26 790.735V872.628C1006.26 985.423 914.815 1076.86 802.006 1076.86C689.197 1076.86 597.746 985.423 597.746 872.628V790.735C597.746 677.94 689.197 586.502 802.006 586.502ZM802.006 673.947C739.533 673.947 688.888 724.585 688.888 787.05V876.314C688.888 938.779 739.533 989.416 802.006 989.416C864.479 989.416 915.123 938.778 915.123 876.313V787.05C915.123 724.585 864.479 673.947 802.006 673.947Z" stroke="#0D47B4" stroke-opacity="0.2"/>
<mask id="path-6-inside-1_2042_992" fill="white">
<path d="M404.547 586V979.087H609.307V1077.36L302.168 1077.36V586H404.547Z"/>
</mask>
<path d="M404.547 586H405.547V585H404.547V586ZM404.547 979.087H403.547V980.087H404.547V979.087ZM609.307 979.087H610.307V978.087H609.307V979.087ZM609.307 1077.36V1078.36H610.307V1077.36H609.307ZM302.168 1077.36H301.168V1078.36H302.168L302.168 1077.36ZM302.168 586V585H301.168V586H302.168ZM404.547 586H403.547V979.087H404.547H405.547V586H404.547ZM404.547 979.087V980.087H609.307V979.087V978.087H404.547V979.087ZM609.307 979.087H608.307V1077.36H609.307H610.307V979.087H609.307ZM609.307 1077.36V1076.36L302.168 1076.36L302.168 1077.36L302.168 1078.36L609.307 1078.36V1077.36ZM302.168 1077.36H303.168V586H302.168H301.168V1077.36H302.168ZM302.168 586V587H404.547V586V585H302.168V586Z" fill="#0D47B4" fill-opacity="0.2" mask="url(#path-6-inside-1_2042_992)"/>
</g>
</svg>
