<svg width="800" height="400" viewBox="0 0 800 400" fill="none" xmlns="http://www.w3.org/2000/svg">
<g clip-path="url(#clip0_2122_689)">
<rect width="800" height="400" fill="white"/>
<rect y="-16" width="800" height="416" fill="url(#paint0_linear_2122_689)"/>
<g style="mix-blend-mode:multiply">
<path d="M142.949 216.844C63.4981 216.844 1.7394 276.281 -19.2085 306L-53 -11H814.039L1099 283.711C1018.64 255.299 924.892 70.7266 701.95 70.7266C537.732 70.7266 487.251 216.844 381.962 235.005C294.038 250.171 242.263 216.844 142.949 216.844Z" fill="url(#paint1_linear_2122_689)" fill-opacity="0.36"/>
</g>
<path d="M123.793 198.81H123.818C123.509 186.404 113.444 176.433 101.006 176.288V200.516H101C101.567 231.561 125.316 256.947 155.694 260V230.044C155.48 230.044 155.272 230.076 155.058 230.076C137.792 230.076 123.793 216.076 123.793 198.81Z" fill="#15FFEB"/>
<path d="M101 140V168.118C118.216 168.175 132.158 182.149 132.158 199.377H132.133C132.448 211.872 142.651 221.911 155.222 221.911C155.379 221.911 155.53 221.893 155.694 221.886V200.51H155.58C155.58 169.182 131.705 143.399 101.006 140H101Z" fill="#004BD6"/>
<mask id="mask0_2122_689" style="mask-type:alpha" maskUnits="userSpaceOnUse" x="192" y="155" width="508" height="91">
<path fill-rule="evenodd" clip-rule="evenodd" d="M295.481 155H276.666V173.06V191.12V209.18V245.3H295.481V209.18H333.11V245.3H351.925V209.18L389.555 209.18V245.3H408.37V209.18L445.999 209.18V191.12L408.37 191.12V173.06L445.999 173.06V155H408.37V173.06L389.555 173.06V155H351.925V173.06L333.11 173.06V155H295.481ZM351.925 173.06L389.555 173.06V191.12L351.925 191.12V173.06ZM333.11 191.12V173.06L295.481 173.06V191.12H333.11Z" fill="black"/>
<path fill-rule="evenodd" clip-rule="evenodd" d="M637.214 175.707L637.225 175.711L642.453 156.806H650.657L656.471 177.832L656.475 177.831L666.523 214.363L682.354 156.806H700L675.659 245.3H657.387L646.553 205.909L635.718 245.3H617.446L593.105 156.806H610.751L626.582 214.363L637.214 175.707Z" fill="black"/>
<path fill-rule="evenodd" clip-rule="evenodd" d="M229.63 155C208.847 155 192 171.845 192 192.625V207.675C192 228.455 208.847 245.3 229.63 245.3C250.412 245.3 267.259 228.455 267.259 207.675V192.625C267.259 171.845 250.412 155 229.63 155ZM229.63 171.254C218.199 171.254 208.933 180.519 208.933 191.948V208.352C208.933 219.781 218.199 229.046 229.63 229.046C241.06 229.046 250.326 219.781 250.326 208.352V191.948C250.326 180.519 241.06 171.254 229.63 171.254Z" fill="black"/>
<path fill-rule="evenodd" clip-rule="evenodd" d="M555.126 155C534.343 155 517.496 171.845 517.496 192.625V207.675C517.496 228.455 534.343 245.3 555.126 245.3C575.908 245.3 592.755 228.455 592.755 207.675V192.625C592.755 171.845 575.908 155 555.126 155ZM555.126 171.254C543.695 171.254 534.429 180.519 534.429 191.948V208.352C534.429 219.781 543.695 229.046 555.126 229.046C566.556 229.046 575.822 219.781 575.822 208.352V191.948C575.822 180.519 566.556 171.254 555.126 171.254Z" fill="black"/>
</mask>
<g mask="url(#mask0_2122_689)">
<rect x="154.371" y="131.522" width="564.444" height="137.256" fill="url(#paint2_linear_2122_689)"/>
</g>
<rect x="276.67" y="155" width="18.81" height="18.05" fill="#15FFEB"/>
<mask id="mask1_2122_689" style="mask-type:alpha" maskUnits="userSpaceOnUse" x="192" y="155" width="508" height="91">
<path fill-rule="evenodd" clip-rule="evenodd" d="M295.481 155H276.666V173.06V191.12V209.18V245.3H295.481V209.18H333.11V245.3H351.925V209.18L389.555 209.18V245.3H408.37V209.18L445.999 209.18V191.12L408.37 191.12V173.06L445.999 173.06V155H408.37V173.06L389.555 173.06V155H351.925V173.06L333.11 173.06V155H295.481ZM351.925 173.06L389.555 173.06V191.12L351.925 191.12V173.06ZM333.11 191.12V173.06L295.481 173.06V191.12H333.11Z" fill="black"/>
<path fill-rule="evenodd" clip-rule="evenodd" d="M637.214 175.707L637.225 175.711L642.453 156.806H650.657L656.471 177.832L656.475 177.831L666.523 214.363L682.354 156.806H700L675.659 245.3H657.387L646.553 205.909L635.718 245.3H617.446L593.105 156.806H610.751L626.582 214.363L637.214 175.707Z" fill="black"/>
<path fill-rule="evenodd" clip-rule="evenodd" d="M229.63 155C208.847 155 192 171.845 192 192.625V207.675C192 228.455 208.847 245.3 229.63 245.3C250.412 245.3 267.259 228.455 267.259 207.675V192.625C267.259 171.845 250.412 155 229.63 155ZM229.63 171.254C218.199 171.254 208.933 180.519 208.933 191.948V208.352C208.933 219.781 218.199 229.046 229.63 229.046C241.06 229.046 250.326 219.781 250.326 208.352V191.948C250.326 180.519 241.06 171.254 229.63 171.254Z" fill="black"/>
<path fill-rule="evenodd" clip-rule="evenodd" d="M555.126 155C534.343 155 517.496 171.845 517.496 192.625V207.675C517.496 228.455 534.343 245.3 555.126 245.3C575.908 245.3 592.755 228.455 592.755 207.675V192.625C592.755 171.845 575.908 155 555.126 155ZM555.126 171.254C543.695 171.254 534.429 180.519 534.429 191.948V208.352C534.429 219.781 543.695 229.046 555.126 229.046C566.556 229.046 575.822 219.781 575.822 208.352V191.948C575.822 180.519 566.556 171.254 555.126 171.254Z" fill="black"/>
</mask>
<g mask="url(#mask1_2122_689)">
<path d="M154 132H718.444V269.256H154V132Z" fill="url(#paint3_linear_2122_689)"/>
</g>
<rect x="276.67" y="155" width="18.81" height="18.05" fill="#15FFEB"/>
<path d="M474.223 227.24H511.852V245.3H455.407V209.06H446V191H455.407V155H474.223V227.24Z" fill="white"/>
</g>
<defs>
<linearGradient id="paint0_linear_2122_689" x1="0" y1="400" x2="800" y2="400" gradientUnits="userSpaceOnUse">
<stop stop-color="#4DD2FF"/>
<stop offset="1" stop-color="#A64DFF"/>
</linearGradient>
<linearGradient id="paint1_linear_2122_689" x1="40.1326" y1="-65.0717" x2="834.742" y2="92.7283" gradientUnits="userSpaceOnUse">
<stop stop-color="#0099E6" stop-opacity="0.55"/>
<stop offset="1" stop-color="#A5EFFE"/>
</linearGradient>
<linearGradient id="paint2_linear_2122_689" x1="154.371" y1="200.15" x2="718.816" y2="200.15" gradientUnits="userSpaceOnUse">
<stop offset="1" stop-color="#004BD6"/>
</linearGradient>
<linearGradient id="paint3_linear_2122_689" x1="154" y1="200.628" x2="718.444" y2="200.628" gradientUnits="userSpaceOnUse">
<stop offset="1" stop-color="white"/>
</linearGradient>
<clipPath id="clip0_2122_689">
<rect width="800" height="400" fill="white"/>
</clipPath>
</defs>
</svg>
