<svg width="1589" height="500" viewBox="0 0 1589 500" fill="none" xmlns="http://www.w3.org/2000/svg">
<path d="M-518.304 98.7738V197.046H-312.545V98.7738H-211.165V197.046H-5.40527V98.7738H95.9736V197.046H300.733V294.318H95.9736V490.861H-5.40527V294.318H-211.165V490.861H-312.545V294.318H-518.304V490.861H-619.684V98.7738H-518.304ZM300.733 0.502319V97.7738H96.9736V0.502319H300.733ZM-6.40527 0.502319V97.7738H-210.165V0.502319H-6.40527ZM-313.545 0.502319V97.7738H-517.304V0.502319H-313.545Z" stroke="#0D47B4" stroke-opacity="0.2"/>
<path d="M1102.25 10.3552L1188.29 323.178L1188.77 324.931L1189.25 323.178L1246.97 113.352L1247.03 113.374L1247.17 112.857L1275.51 10.3552H1319.39L1350.93 124.398L1351.07 124.915L1351.09 124.907L1405.63 323.178L1406.11 324.931L1406.59 323.178L1492.64 10.3552H1587.62L1455.44 490.886H1356.78L1297.92 276.91L1297.44 275.157L1296.96 276.91L1238.1 490.886H1139.44L1007.27 10.3552H1102.25Z" stroke="#0D47B4" stroke-opacity="0.2"/>
<path d="M800.006 0.502319C912.815 0.50255 1004.26 91.9405 1004.26 204.735V286.628C1004.26 399.423 912.815 490.86 800.006 490.861C687.197 490.861 595.746 399.423 595.746 286.628V204.735C595.746 91.9403 687.197 0.502319 800.006 0.502319ZM800.006 87.9467C737.533 87.9467 686.888 138.585 686.888 201.05V290.314C686.888 352.779 737.533 403.416 800.006 403.416C862.479 403.416 913.123 352.778 913.123 290.313V201.05C913.123 138.585 862.479 87.9469 800.006 87.9467Z" stroke="#0D47B4" stroke-opacity="0.2"/>
<mask id="path-4-inside-1_1841_1698" fill="white">
<path d="M402.547 0V393.087H607.307V491.358L300.168 491.357V0H402.547Z"/>
</mask>
<path d="M402.547 0H403.547V-1H402.547V0ZM402.547 393.087H401.547V394.087H402.547V393.087ZM607.307 393.087H608.307V392.087H607.307V393.087ZM607.307 491.358V492.358H608.307V491.358H607.307ZM300.168 491.357H299.168V492.357H300.168L300.168 491.357ZM300.168 0V-1H299.168V0H300.168ZM402.547 0H401.547V393.087H402.547H403.547V0H402.547ZM402.547 393.087V394.087H607.307V393.087V392.087H402.547V393.087ZM607.307 393.087H606.307V491.358H607.307H608.307V393.087H607.307ZM607.307 491.358V490.358L300.168 490.357L300.168 491.357L300.168 492.357L607.307 492.358V491.358ZM300.168 491.357H301.168V0H300.168H299.168V491.357H300.168ZM300.168 0V1H402.547V0V-1H300.168V0Z" fill="#0D47B4" fill-opacity="0.2" mask="url(#path-4-inside-1_1841_1698)"/>
</svg>
