<svg width="540" height="397" viewBox="0 0 540 397" fill="none" xmlns="http://www.w3.org/2000/svg">
<path d="M39 0V360" stroke="#DEDEDE" stroke-width="0.5"/>
<path d="M222 0V360" stroke="#DEDEDE" stroke-width="0.5"/>
<path d="M314 0V360" stroke="#DEDEDE" stroke-width="0.5"/>
<path d="M407 0V360" stroke="#DEDEDE" stroke-width="0.5"/>
<path d="M504 2V362" stroke="#DEDEDE" stroke-width="0.5"/>
<path d="M1 341L539 341" stroke="#DEDEDE" stroke-width="0.5"/>
<path d="M1 285L539 285" stroke="#DEDEDE" stroke-width="0.5"/>
<path d="M1 217L539 217" stroke="#DEDEDE" stroke-width="0.5"/>
<path d="M1 148L539 148" stroke="#DEDEDE" stroke-width="0.5"/>
<path d="M1 80L539 80" stroke="#DEDEDE" stroke-width="0.5"/>
<path d="M1 11L539 11" stroke="#DEDEDE" stroke-width="0.5"/>
<path d="M1 0V361H539V0" stroke="#CCCCCC" stroke-width="2"/>
<path d="M33.6667 251C33.6667 248.054 36.0545 245.667 39 245.667C41.9455 245.667 44.3333 248.054 44.3333 251C44.3333 253.946 41.9455 256.333 39 256.333C36.0545 256.333 33.6667 253.946 33.6667 251ZM122.667 314C122.667 311.054 125.054 308.667 128 308.667C130.946 308.667 133.333 311.054 133.333 314C133.333 316.946 130.946 319.333 128 319.333C125.054 319.333 122.667 316.946 122.667 314ZM39 251L39.5778 250.184L128.578 313.184L128 314L127.422 314.816L38.4222 251.816L39 251Z" fill="#062A9B"/>
<path d="M219.605 280.405C216.974 279.081 215.915 275.874 217.239 273.243C218.564 270.612 221.77 269.553 224.401 270.878C227.032 272.202 228.091 275.409 226.767 278.04C225.442 280.671 222.236 281.73 219.605 280.405ZM311.603 203.763C308.972 202.439 307.913 199.232 309.237 196.601C310.562 193.97 313.768 192.911 316.399 194.236C319.03 195.56 320.089 198.767 318.765 201.398C317.44 204.029 314.234 205.088 311.603 203.763ZM222.003 275.641L221.363 274.873L313.361 198.231L314.001 199L314.641 199.768L222.643 276.41L222.003 275.641Z" fill="#062A9B"/>
<path d="M308.667 199C308.667 201.946 311.054 204.333 314 204.333C316.946 204.333 319.333 201.946 319.333 199C319.333 196.054 316.946 193.667 314 193.667C311.054 193.667 308.667 196.054 308.667 199ZM401.667 117C401.667 119.946 404.054 122.333 407 122.333C409.946 122.333 412.333 119.946 412.333 117C412.333 114.054 409.946 111.667 407 111.667C404.054 111.667 401.667 114.054 401.667 117ZM314 199L314.661 199.75L407.661 117.75L407 117L406.339 116.25L313.339 198.25L314 199Z" fill="#062A9B"/>
<path d="M498.667 57C498.667 59.9455 501.054 62.3333 504 62.3333C506.946 62.3333 509.333 59.9455 509.333 57C509.333 54.0545 506.946 51.6667 504 51.6667C501.054 51.6667 498.667 54.0545 498.667 57ZM407 117C407.526 117.85 407.526 117.85 407.527 117.85C407.527 117.85 407.528 117.849 407.529 117.849C407.529 117.848 407.534 117.845 407.537 117.844C407.545 117.839 407.554 117.833 407.569 117.824C407.598 117.806 407.64 117.78 407.697 117.745C407.81 117.675 407.978 117.571 408.199 117.434C408.642 117.16 409.295 116.756 410.14 116.233C411.831 115.188 414.288 113.668 417.355 111.771C423.49 107.976 432.063 102.673 441.821 96.6372C461.336 84.5662 485.586 69.5662 504.526 57.8505L504 57L503.474 56.1495C484.534 67.8653 460.284 82.8653 440.769 94.9363C431.011 100.972 422.438 106.275 416.303 110.07C413.236 111.967 410.779 113.487 409.088 114.532C408.243 115.055 407.589 115.46 407.147 115.733C406.926 115.87 406.758 115.974 406.645 116.044C406.588 116.079 406.545 116.105 406.517 116.123C406.503 116.131 406.491 116.139 406.485 116.143C406.482 116.144 406.477 116.147 406.477 116.148C406.476 116.148 406.475 116.149 406.475 116.149C406.474 116.149 406.474 116.15 407 117Z" fill="#062A9B"/>
<path d="M17.912 383.32C20.392 383.32 21.976 384.744 21.976 387C21.976 388.408 21.048 389.656 19.384 391.256L14.84 395.608H22.536V396.232H13.832V395.608L18.712 390.936C20.424 389.288 21.288 388.056 21.288 387C21.288 385.048 19.912 383.944 17.912 383.944C15.704 383.944 14.472 385.544 14.472 387.336H13.784C13.784 385.208 15.272 383.32 17.912 383.32ZM28.8314 383.32C31.3914 383.32 33.3434 385.512 33.3434 389.912C33.3434 394.312 31.3914 396.504 28.8314 396.504C26.2714 396.504 24.3194 394.312 24.3194 389.912C24.3194 385.512 26.2714 383.32 28.8314 383.32ZM28.8314 383.944C26.7194 383.944 25.0074 386.008 25.0074 389.912C25.0074 393.816 26.7194 395.88 28.8314 395.88C30.9434 395.88 32.6554 393.816 32.6554 389.912C32.6554 386.008 30.9434 383.944 28.8314 383.944ZM38.8409 383.592V396.232H38.1529V384.216H35.2249V383.592H38.8409ZM45.0104 396.2L48.5944 391.08C48.0984 391.432 47.2664 391.704 46.2904 391.704C43.8424 391.704 41.9064 390.088 41.9064 387.528C41.9064 384.952 43.8424 383.288 46.2904 383.288C48.7384 383.288 50.6744 384.936 50.6744 387.512C50.6744 388.808 50.1944 389.88 49.4264 390.984L45.8104 396.2H45.0104ZM46.2904 391.08C48.5624 391.08 50.0024 389.496 50.0024 387.496C50.0024 385.48 48.5624 383.912 46.2904 383.912C44.0184 383.912 42.5784 385.48 42.5784 387.496C42.5784 389.512 44.0184 391.08 46.2904 391.08ZM64.3 393.224V388.36H58.716V387.752H64.3V385.56H58.716V384.952H64.3V383H64.972V393.224H64.3ZM62.3 390.744C61.276 391.176 59.356 391.384 56.972 391.384H53.164V383.4H53.836V390.744H57.068C59.356 390.744 61.228 390.536 62.3 390.088V390.744ZM54.508 395.72H65.356V396.344H53.836V392.808H54.508V395.72Z" fill="black"/>
<path d="M104.912 383.32C107.392 383.32 108.976 384.744 108.976 387C108.976 388.408 108.048 389.656 106.384 391.256L101.84 395.608H109.536V396.232H100.832V395.608L105.712 390.936C107.424 389.288 108.288 388.056 108.288 387C108.288 385.048 106.912 383.944 104.912 383.944C102.704 383.944 101.472 385.544 101.472 387.336H100.784C100.784 385.208 102.272 383.32 104.912 383.32ZM115.831 383.32C118.391 383.32 120.343 385.512 120.343 389.912C120.343 394.312 118.391 396.504 115.831 396.504C113.271 396.504 111.319 394.312 111.319 389.912C111.319 385.512 113.271 383.32 115.831 383.32ZM115.831 383.944C113.719 383.944 112.007 386.008 112.007 389.912C112.007 393.816 113.719 395.88 115.831 395.88C117.943 395.88 119.655 393.816 119.655 389.912C119.655 386.008 117.943 383.944 115.831 383.944ZM126.209 383.32C128.689 383.32 130.273 384.744 130.273 387C130.273 388.408 129.345 389.656 127.681 391.256L123.137 395.608H130.833V396.232H122.129V395.608L127.009 390.936C128.721 389.288 129.585 388.056 129.585 387C129.585 385.048 128.209 383.944 126.209 383.944C124.001 383.944 122.769 385.544 122.769 387.336H122.081C122.081 385.208 123.569 383.32 126.209 383.32ZM137.128 383.32C139.688 383.32 141.64 385.512 141.64 389.912C141.64 394.312 139.688 396.504 137.128 396.504C134.568 396.504 132.616 394.312 132.616 389.912C132.616 385.512 134.568 383.32 137.128 383.32ZM137.128 383.944C135.016 383.944 133.304 386.008 133.304 389.912C133.304 393.816 135.016 395.88 137.128 395.88C139.24 395.88 140.952 393.816 140.952 389.912C140.952 386.008 139.24 383.944 137.128 383.944ZM155.394 393.224V388.36H149.81V387.752H155.394V385.56H149.81V384.952H155.394V383H156.066V393.224H155.394ZM153.394 390.744C152.37 391.176 150.45 391.384 148.066 391.384H144.258V383.4H144.93V390.744H148.162C150.45 390.744 152.322 390.536 153.394 390.088V390.744ZM145.602 395.72H156.45V396.344H144.93V392.808H145.602V395.72Z" fill="black"/>
<path d="M197.912 383.32C200.392 383.32 201.976 384.744 201.976 387C201.976 388.408 201.048 389.656 199.384 391.256L194.84 395.608H202.536V396.232H193.832V395.608L198.712 390.936C200.424 389.288 201.288 388.056 201.288 387C201.288 385.048 199.912 383.944 197.912 383.944C195.704 383.944 194.472 385.544 194.472 387.336H193.784C193.784 385.208 195.272 383.32 197.912 383.32ZM208.831 383.32C211.391 383.32 213.343 385.512 213.343 389.912C213.343 394.312 211.391 396.504 208.831 396.504C206.271 396.504 204.319 394.312 204.319 389.912C204.319 385.512 206.271 383.32 208.831 383.32ZM208.831 383.944C206.719 383.944 205.007 386.008 205.007 389.912C205.007 393.816 206.719 395.88 208.831 395.88C210.943 395.88 212.655 393.816 212.655 389.912C212.655 386.008 210.943 383.944 208.831 383.944ZM219.209 383.32C221.689 383.32 223.273 384.744 223.273 387C223.273 388.408 222.345 389.656 220.681 391.256L216.137 395.608H223.833V396.232H215.129V395.608L220.009 390.936C221.721 389.288 222.585 388.056 222.585 387C222.585 385.048 221.209 383.944 219.209 383.944C217.001 383.944 215.769 385.544 215.769 387.336H215.081C215.081 385.208 216.569 383.32 219.209 383.32ZM229.2 383.592V396.232H228.512V384.216H225.584V383.592H229.2ZM244.394 393.224V388.36H238.81V387.752H244.394V385.56H238.81V384.952H244.394V383H245.066V393.224H244.394ZM242.394 390.744C241.37 391.176 239.45 391.384 237.066 391.384H233.258V383.4H233.93V390.744H237.162C239.45 390.744 241.322 390.536 242.394 390.088V390.744ZM234.602 395.72H245.45V396.344H233.93V392.808H234.602V395.72Z" fill="black"/>
<path d="M286.912 383.32C289.392 383.32 290.976 384.744 290.976 387C290.976 388.408 290.048 389.656 288.384 391.256L283.84 395.608H291.536V396.232H282.832V395.608L287.712 390.936C289.424 389.288 290.288 388.056 290.288 387C290.288 385.048 288.912 383.944 286.912 383.944C284.704 383.944 283.472 385.544 283.472 387.336H282.784C282.784 385.208 284.272 383.32 286.912 383.32ZM297.831 383.32C300.391 383.32 302.343 385.512 302.343 389.912C302.343 394.312 300.391 396.504 297.831 396.504C295.271 396.504 293.319 394.312 293.319 389.912C293.319 385.512 295.271 383.32 297.831 383.32ZM297.831 383.944C295.719 383.944 294.007 386.008 294.007 389.912C294.007 393.816 295.719 395.88 297.831 395.88C299.943 395.88 301.655 393.816 301.655 389.912C301.655 386.008 299.943 383.944 297.831 383.944ZM308.209 383.32C310.689 383.32 312.273 384.744 312.273 387C312.273 388.408 311.345 389.656 309.681 391.256L305.137 395.608H312.833V396.232H304.129V395.608L309.009 390.936C310.721 389.288 311.585 388.056 311.585 387C311.585 385.048 310.209 383.944 308.209 383.944C306.001 383.944 304.769 385.544 304.769 387.336H304.081C304.081 385.208 305.569 383.32 308.209 383.32ZM318.568 383.32C321.048 383.32 322.632 384.744 322.632 387C322.632 388.408 321.704 389.656 320.04 391.256L315.496 395.608H323.192V396.232H314.488V395.608L319.368 390.936C321.08 389.288 321.944 388.056 321.944 387C321.944 385.048 320.568 383.944 318.568 383.944C316.36 383.944 315.128 385.544 315.128 387.336H314.44C314.44 385.208 315.928 383.32 318.568 383.32ZM336.816 393.224V388.36H331.232V387.752H336.816V385.56H331.232V384.952H336.816V383H337.488V393.224H336.816ZM334.816 390.744C333.792 391.176 331.872 391.384 329.488 391.384H325.68V383.4H326.352V390.744H329.584C331.872 390.744 333.744 390.536 334.816 390.088V390.744ZM327.024 395.72H337.872V396.344H326.352V392.808H327.024V395.72Z" fill="black"/>
<path d="M380.912 383.32C383.392 383.32 384.976 384.744 384.976 387C384.976 388.408 384.048 389.656 382.384 391.256L377.84 395.608H385.536V396.232H376.832V395.608L381.712 390.936C383.424 389.288 384.288 388.056 384.288 387C384.288 385.048 382.912 383.944 380.912 383.944C378.704 383.944 377.472 385.544 377.472 387.336H376.784C376.784 385.208 378.272 383.32 380.912 383.32ZM391.831 383.32C394.391 383.32 396.343 385.512 396.343 389.912C396.343 394.312 394.391 396.504 391.831 396.504C389.271 396.504 387.319 394.312 387.319 389.912C387.319 385.512 389.271 383.32 391.831 383.32ZM391.831 383.944C389.719 383.944 388.007 386.008 388.007 389.912C388.007 393.816 389.719 395.88 391.831 395.88C393.943 395.88 395.655 393.816 395.655 389.912C395.655 386.008 393.943 383.944 391.831 383.944ZM402.209 383.32C404.689 383.32 406.273 384.744 406.273 387C406.273 388.408 405.345 389.656 403.681 391.256L399.137 395.608H406.833V396.232H398.129V395.608L403.009 390.936C404.721 389.288 405.585 388.056 405.585 387C405.585 385.048 404.209 383.944 402.209 383.944C400.001 383.944 398.769 385.544 398.769 387.336H398.081C398.081 385.208 399.569 383.32 402.209 383.32ZM412.664 383.32C415.256 383.32 416.84 385 416.84 386.776C416.84 388.376 415.672 389.464 414.424 389.816C415.8 390.104 417.176 391.112 417.176 392.952C417.176 394.808 415.528 396.504 412.824 396.504C410.136 396.504 408.472 394.776 408.472 392.776H409.16C409.16 394.424 410.536 395.88 412.824 395.88C415.112 395.88 416.488 394.504 416.488 392.984C416.488 391.256 415.096 390.152 412.664 390.152H411.176V389.56H412.664C414.696 389.56 416.152 388.392 416.152 386.808C416.152 385.336 414.856 383.944 412.664 383.944C410.472 383.944 409.192 385.432 409.192 387.144H408.504C408.504 385.064 410.088 383.32 412.664 383.32ZM430.847 393.224V388.36H425.263V387.752H430.847V385.56H425.263V384.952H430.847V383H431.519V393.224H430.847ZM428.847 390.744C427.823 391.176 425.903 391.384 423.519 391.384H419.711V383.4H420.383V390.744H423.615C425.903 390.744 427.775 390.536 428.847 390.088V390.744ZM421.055 395.72H431.903V396.344H420.383V392.808H421.055V395.72Z" fill="black"/>
<path d="M478.912 383.32C481.392 383.32 482.976 384.744 482.976 387C482.976 388.408 482.048 389.656 480.384 391.256L475.84 395.608H483.536V396.232H474.832V395.608L479.712 390.936C481.424 389.288 482.288 388.056 482.288 387C482.288 385.048 480.912 383.944 478.912 383.944C476.704 383.944 475.472 385.544 475.472 387.336H474.784C474.784 385.208 476.272 383.32 478.912 383.32ZM489.831 383.32C492.391 383.32 494.343 385.512 494.343 389.912C494.343 394.312 492.391 396.504 489.831 396.504C487.271 396.504 485.319 394.312 485.319 389.912C485.319 385.512 487.271 383.32 489.831 383.32ZM489.831 383.944C487.719 383.944 486.007 386.008 486.007 389.912C486.007 393.816 487.719 395.88 489.831 395.88C491.943 395.88 493.655 393.816 493.655 389.912C493.655 386.008 491.943 383.944 489.831 383.944ZM500.209 383.32C502.689 383.32 504.273 384.744 504.273 387C504.273 388.408 503.345 389.656 501.681 391.256L497.137 395.608H504.833V396.232H496.129V395.608L501.009 390.936C502.721 389.288 503.585 388.056 503.585 387C503.585 385.048 502.209 383.944 500.209 383.944C498.001 383.944 496.769 385.544 496.769 387.336H496.081C496.081 385.208 497.569 383.32 500.209 383.32ZM512.469 396.232V393.112H505.573V392.504L512.453 383.592H513.141V392.504H515.557V393.112H513.141V396.232H512.469ZM506.373 392.504H512.469V384.568L506.373 392.504ZM528.675 393.224V388.36H523.091V387.752H528.675V385.56H523.091V384.952H528.675V383H529.347V393.224H528.675ZM526.675 390.744C525.651 391.176 523.731 391.384 521.347 391.384H517.539V383.4H518.211V390.744H521.443C523.731 390.744 525.603 390.536 526.675 390.088V390.744ZM518.883 395.72H529.731V396.344H518.211V392.808H518.883V395.72Z" fill="black"/>
<path d="M20.588 230.996V230.18L23.996 226.76C25.22 225.524 25.7 224.744 25.7 224.06C25.7 222.932 24.932 222.272 23.732 222.272C22.436 222.272 21.74 223.256 21.74 224.324H20.48C20.48 222.584 21.74 221.156 23.744 221.156C25.676 221.156 26.948 222.32 26.948 224.048C26.948 225.08 26.36 225.956 24.92 227.432L22.4 229.904H27.272V230.996H20.588ZM30.119 229.496L29.519 232.208H28.535L28.919 229.496H30.119ZM34.582 231.212C32.554 231.212 31.03 229.544 31.03 226.184C31.03 222.824 32.554 221.156 34.582 221.156C36.598 221.156 38.122 222.824 38.122 226.184C38.122 229.544 36.598 231.212 34.582 231.212ZM34.582 230.096C35.878 230.096 36.91 228.8 36.91 226.184C36.91 223.58 35.878 222.272 34.582 222.272C33.274 222.272 32.242 223.58 32.242 226.184C32.242 228.8 33.274 230.096 34.582 230.096ZM39.9716 230.996L43.8836 222.488H38.7476V221.384H45.3356V222.224L41.3036 230.996H39.9716ZM49.6824 231.212C47.6664 231.212 46.2744 230.084 46.2744 228.476C46.2744 227.024 47.4264 226.22 48.2904 226.016C47.5464 225.788 46.6104 225.008 46.6104 223.784C46.6104 222.344 47.8464 221.156 49.6824 221.156C51.5064 221.156 52.7424 222.356 52.7424 223.784C52.7424 225.008 51.8064 225.788 51.0624 226.016C51.9384 226.22 53.0784 227.024 53.0784 228.476C53.0784 230.084 51.6864 231.212 49.6824 231.212ZM49.6824 225.452C50.7744 225.452 51.5424 224.732 51.5424 223.82C51.5424 222.932 50.8104 222.212 49.6824 222.212C48.5544 222.212 47.8224 222.908 47.8224 223.796C47.8224 224.72 48.5904 225.452 49.6824 225.452ZM49.6824 230.156C51.0024 230.156 51.8544 229.4 51.8544 228.404C51.8544 227.396 50.9304 226.616 49.6824 226.616C48.4224 226.616 47.4984 227.396 47.4984 228.404C47.4984 229.4 48.3504 230.156 49.6824 230.156Z" fill="black"/>
<path d="M210.532 246.996V238.488H208.54V237.384H211.792V246.996H210.532ZM215.435 245.496L214.835 248.208H213.851L214.235 245.496H215.435ZM220.01 247.212C217.934 247.212 216.686 245.952 216.614 244.284H217.862C217.898 245.316 218.654 246.12 220.01 246.12C221.342 246.12 222.17 245.184 222.17 243.924C222.17 242.688 221.306 241.776 220.034 241.776C218.978 241.776 218.366 242.316 218.042 242.916H216.806L217.082 237.384H222.914V238.476H218.234L218.066 241.62C218.426 241.176 219.134 240.696 220.238 240.696C222.062 240.696 223.406 242.004 223.406 243.924C223.406 245.832 222.026 247.212 220.01 247.212ZM227.068 240.912C227.296 240.804 227.68 240.684 228.1 240.684C229.972 240.684 231.484 241.968 231.484 243.924C231.484 245.928 229.936 247.212 228.004 247.212C226.06 247.212 224.512 245.928 224.512 243.924C224.512 242.94 224.848 242.172 225.448 241.284L228.052 237.384H229.492L227.068 240.912ZM228.004 246.12C229.384 246.12 230.248 245.16 230.248 243.936C230.248 242.7 229.384 241.74 228.004 241.74C226.612 241.74 225.748 242.712 225.748 243.936C225.748 245.16 226.612 246.12 228.004 246.12ZM237.008 246.996V244.824H232.16V243.756L236.72 237.384H238.208V243.756H239.78V244.824H238.208V246.996H237.008ZM233.456 243.756H237.008V238.764L233.456 243.756Z" fill="black"/>
<path d="M299.924 180.212C297.86 180.212 296.588 178.964 296.516 177.284H297.764C297.8 178.316 298.568 179.12 299.924 179.12C301.268 179.12 302.072 178.352 302.072 177.392C302.072 176.312 301.208 175.676 299.756 175.676H298.7V174.632H299.756C300.98 174.632 301.808 173.936 301.808 172.94C301.808 172.004 301.064 171.236 299.792 171.236C298.496 171.236 297.788 172.148 297.788 173.168H296.528C296.528 171.476 297.824 170.156 299.792 170.156C301.772 170.156 303.056 171.392 303.056 172.904C303.056 174.08 302.228 174.896 301.34 175.112C302.312 175.292 303.308 176.048 303.308 177.38C303.308 178.988 301.94 180.212 299.924 180.212ZM306.142 178.496L305.542 181.208H304.558L304.942 178.496H306.142ZM309.877 173.912C310.105 173.804 310.489 173.684 310.909 173.684C312.781 173.684 314.293 174.968 314.293 176.924C314.293 178.928 312.745 180.212 310.813 180.212C308.869 180.212 307.321 178.928 307.321 176.924C307.321 175.94 307.657 175.172 308.257 174.284L310.861 170.384H312.301L309.877 173.912ZM310.813 179.12C312.193 179.12 313.057 178.16 313.057 176.936C313.057 175.7 312.193 174.74 310.813 174.74C309.421 174.74 308.557 175.712 308.557 176.936C308.557 178.16 309.421 179.12 310.813 179.12ZM315.866 179.996L319.778 171.488H314.642V170.384H321.23V171.224L317.198 179.996H315.866ZM322.217 179.996V179.18L325.625 175.76C326.849 174.524 327.329 173.744 327.329 173.06C327.329 171.932 326.561 171.272 325.361 171.272C324.065 171.272 323.369 172.256 323.369 173.324H322.109C322.109 171.584 323.369 170.156 325.373 170.156C327.305 170.156 328.577 171.32 328.577 173.048C328.577 174.08 327.989 174.956 326.549 176.432L324.029 178.904H328.901V179.996H322.217Z" fill="black"/>
<path d="M391.62 99.996L395.532 91.488H390.396V90.384H396.984V91.224L392.952 99.996H391.62ZM398.185 98.496L397.585 101.208H396.601L396.985 98.496H398.185ZM400.477 99.996V91.488H398.485V90.384H401.737V99.996H400.477ZM405.903 99.996V91.488H403.911V90.384H407.163V99.996H405.903ZM411.869 93.912C412.097 93.804 412.481 93.684 412.901 93.684C414.773 93.684 416.285 94.968 416.285 96.924C416.285 98.928 414.737 100.212 412.805 100.212C410.861 100.212 409.313 98.928 409.313 96.924C409.313 95.94 409.649 95.172 410.249 94.284L412.853 90.384H414.293L411.869 93.912ZM412.805 99.12C414.185 99.12 415.049 98.16 415.049 96.936C415.049 95.7 414.185 94.74 412.805 94.74C411.413 94.74 410.549 95.712 410.549 96.936C410.549 98.16 411.413 99.12 412.805 99.12Z" fill="black"/>
<path d="M431 52.36C431 55.32 428.26 57.2 424.8 57.2C421.34 57.2 418.6 55.32 418.6 52.36C418.6 50.1 420.46 48.66 421.9 48.36C420.64 47.98 419.16 46.58 419.16 44.72C419.16 42.16 421.48 40.06 424.8 40.06C428.14 40.06 430.4 42.2 430.4 44.72C430.4 46.58 428.94 47.98 427.7 48.36C429.16 48.66 431 50.1 431 52.36ZM427 44.86C427 43.82 426.1 43.02 424.8 43.02C423.54 43.02 422.6 43.74 422.6 44.78C422.6 45.92 423.58 46.72 424.8 46.72C426.06 46.72 427 45.96 427 44.86ZM427.5 52.14C427.5 50.92 426.36 50.02 424.8 50.02C423.24 50.02 422.1 50.92 422.1 52.14C422.1 53.32 423.2 54.2 424.8 54.2C426.4 54.2 427.5 53.32 427.5 52.14ZM436.298 53.22L435.058 58.4H432.398L433.118 53.22H436.298ZM443.878 57.18C440.338 57.18 438.178 55.18 437.918 52.04H441.498C441.638 53.34 442.378 54.1 443.878 54.1C445.358 54.1 446.258 53 446.258 51.5C446.258 49.98 445.378 48.92 443.818 48.92C442.678 48.92 441.958 49.42 441.518 50.02H438.218L438.698 40.5H448.998V43.6H441.998L441.818 46.66C442.518 46.24 443.398 45.98 444.438 45.98C447.638 45.98 449.798 48.04 449.798 51.5C449.798 54.94 447.238 57.18 443.878 57.18ZM453.577 56.8L457.277 51.28C457.177 51.32 456.997 51.36 456.817 51.36C453.637 51.36 451.017 49.14 451.017 45.84C451.017 42.36 453.797 40.12 457.197 40.12C460.597 40.12 463.377 42.34 463.377 45.82C463.377 47.4 462.857 48.62 461.897 50.14L457.697 56.8H453.577ZM457.197 48.4C458.817 48.4 459.837 47.26 459.837 45.8C459.837 44.34 458.817 43.2 457.197 43.2C455.577 43.2 454.557 44.34 454.557 45.8C454.557 47.26 455.577 48.4 457.197 48.4ZM471.116 40.5V56.8H467.496V43.66H464.616V40.5H471.116Z" fill="black"/>
<ellipse cx="503.5" cy="57" rx="9.5" ry="10" fill="#1A3571"/>
<path d="M482 57H489.714H491" stroke="#1A3571" stroke-width="2"/>
<path d="M517 57H524.714H526" stroke="#1A3571" stroke-width="2"/>
<path d="M504 43V36.1429V35" stroke="#1A3571" stroke-width="2"/>
<path d="M514.277 46.6699L519.705 41.2421L520.61 40.3374" stroke="#1A3571" stroke-width="2"/>
<path d="M492.641 46.6699L487.213 41.2421L486.308 40.3374" stroke="#1A3571" stroke-width="2"/>
<path d="M519.797 73.8242L514.369 68.3964L513.464 67.4917" stroke="#1A3571" stroke-width="2"/>
<circle cx="504" cy="57" r="5" fill="white"/>
<path d="M130 2V362" stroke="#DEDEDE" stroke-width="0.5"/>
<path d="M124.799 312.825C124.15 315.698 125.953 318.553 128.826 319.202C131.699 319.851 134.554 318.048 135.203 315.175C135.852 312.302 134.049 309.446 131.176 308.797C128.303 308.148 125.448 309.951 124.799 312.825ZM216.8 274.825C216.151 277.698 217.954 280.553 220.827 281.202C223.7 281.851 226.555 280.048 227.204 277.175C227.853 274.302 226.05 271.446 223.177 270.798C220.304 270.149 217.449 271.952 216.8 274.825ZM130.001 314L130.383 314.924L222.384 276.924L222.002 276L221.62 275.076L129.619 313.075L130.001 314Z" fill="#062A9B"/>
<path d="M117.532 298.996V290.488H115.54V289.384H118.792V298.996H117.532ZM122.435 297.496L121.835 300.208H120.851L121.235 297.496H122.435ZM123.686 298.996V298.18L127.094 294.76C128.318 293.524 128.798 292.744 128.798 292.06C128.798 290.932 128.03 290.272 126.83 290.272C125.534 290.272 124.838 291.256 124.838 292.324H123.578C123.578 290.584 124.838 289.156 126.842 289.156C128.774 289.156 130.046 290.32 130.046 292.048C130.046 293.08 129.458 293.956 128.018 295.432L125.498 297.904H130.37V298.996H123.686ZM135.749 295.456C135.521 295.564 135.137 295.684 134.717 295.684C132.845 295.684 131.333 294.4 131.333 292.444C131.333 290.44 132.881 289.156 134.813 289.156C136.757 289.156 138.305 290.44 138.305 292.444C138.305 293.428 137.957 294.208 137.369 295.084L134.765 298.984H133.325L135.749 295.456ZM134.813 290.248C133.433 290.248 132.569 291.208 132.569 292.432C132.569 293.668 133.433 294.628 134.813 294.628C136.205 294.628 137.069 293.656 137.069 292.432C137.069 291.208 136.205 290.248 134.813 290.248ZM143.574 298.996V296.824H138.726V295.756L143.286 289.384H144.774V295.756H146.346V296.824H144.774V298.996H143.574ZM140.022 295.756H143.574V290.764L140.022 295.756Z" fill="black"/>
</svg>
