<svg width="368" height="427" viewBox="0 0 368 427" fill="none" xmlns="http://www.w3.org/2000/svg">
<path d="M0 268.497H368" stroke="#0D47B4" stroke-dasharray="2 2"/>
<path d="M0 179.332H368" stroke="#0D47B4" stroke-dasharray="2 2"/>
<path d="M0 90.166L368 90.166" stroke="#0D47B4" stroke-dasharray="2 2"/>
<path d="M0 1L368 1" stroke="#0D47B4" stroke-dasharray="2 2"/>
<path d="M96.1183 387.709V395.341H95.4463V387.709H96.1183ZM92.3583 391.405C92.3583 393.421 90.8063 394.861 88.2143 394.861C85.6223 394.861 84.0703 393.421 84.0703 391.405C84.0703 389.389 85.6223 387.949 88.2143 387.949C90.8063 387.949 92.3583 389.389 92.3583 391.405ZM84.7423 391.405C84.7423 393.229 86.1823 394.269 88.2143 394.269C90.2463 394.269 91.6863 393.229 91.6863 391.405C91.6863 389.581 90.2463 388.541 88.2143 388.541C86.1823 388.541 84.7423 389.581 84.7423 391.405ZM97.3023 400.589L96.8543 401.053L93.9263 398.509C93.2223 399.917 92.0703 400.877 90.7423 401.053L88.1503 398.605C87.4303 399.949 86.2943 400.877 84.9983 401.053V400.429C86.6943 400.173 88.1663 398.109 88.2943 395.741L88.9503 395.789C88.9023 396.589 88.7103 397.341 88.4383 398.029L90.9663 400.397C92.5503 400.013 93.8463 398.029 93.9743 395.741L94.6303 395.805C94.5823 396.557 94.4223 397.277 94.1823 397.917L97.3023 400.589ZM113.285 393.693V394.317H111.125V401.373H110.453V387.709H111.125V393.693H113.285ZM100.581 399.789H105.285C106.581 399.789 107.989 399.501 108.821 399.101V399.757C107.989 400.157 106.597 400.413 105.285 400.413H99.9089V388.349H107.749V388.973H100.581V399.789Z" fill="black"/>
<path d="M262.803 391.469C262.675 393.213 261.171 394.509 258.723 394.509C256.163 394.509 254.643 393.101 254.643 391.245C254.643 389.389 256.163 387.981 258.723 387.981C261.107 387.981 262.579 389.197 262.787 390.861H266.211V387.709H266.883V394.845H266.211V391.469H262.803ZM255.315 391.245C255.315 392.909 256.723 393.885 258.723 393.885C260.723 393.885 262.131 392.909 262.131 391.245C262.131 389.581 260.723 388.605 258.723 388.605C256.723 388.605 255.315 389.581 255.315 391.245ZM268.339 400.605L267.891 401.069L265.011 398.413C264.275 400.045 263.091 400.909 261.795 401.053V400.445C263.331 400.253 264.803 398.621 265.043 395.453L265.699 395.501C265.635 396.381 265.475 397.149 265.235 397.821L268.339 400.605ZM260.419 397.533V395.533H261.075V401.053H255.795V395.533H256.451V397.533H260.419ZM256.451 400.445H260.419V398.125H256.451V400.445ZM283.922 393.693V394.317H281.762V401.373H281.09V387.709H281.762V393.693H283.922ZM271.218 399.789H275.922C277.218 399.789 278.626 399.501 279.458 399.101V399.757C278.626 400.157 277.234 400.413 275.922 400.413H270.546V388.349H278.386V388.973H271.218V399.789Z" fill="black"/>
<rect x="52.4219" y="70.3169" width="91.4846" height="287.313" fill="#0D47B4"/>
<rect x="223.059" y="313.754" width="91.4846" height="43.8754" fill="#B3CDFF"/>
<path d="M0 357.663H367.48" stroke="#0D47B4"/>
<path d="M75.0615 44.2335L75.8135 42.5375C76.5335 42.9535 77.3175 43.1775 78.2615 43.1775C79.7495 43.1775 80.5655 42.4095 80.6775 39.9455C80.1175 40.6015 79.0775 40.9535 78.0855 40.9535C75.8455 40.9535 74.4855 39.4975 74.4855 37.2575V36.9375C74.4855 34.7935 76.0215 33.1455 78.5815 33.1455C81.5255 33.1455 82.7095 35.0655 82.7095 38.0255V38.7615C82.7095 43.8495 80.8695 45.0335 78.1335 45.0335C77.0935 45.0335 75.9255 44.8095 75.0615 44.2335ZM80.6455 37.2255V36.9855C80.6455 35.7375 79.9415 35.0015 78.6295 35.0015C77.2215 35.0015 76.5015 35.7215 76.5015 37.0015V37.1775C76.5015 38.5215 77.1415 39.1615 78.5495 39.1615C80.0215 39.1615 80.6455 38.2815 80.6455 37.2255ZM91.0953 44.8575H89.0473V35.6255L86.4233 37.1295L85.4313 35.4655L89.2873 33.3215H91.0953V44.8575ZM95.2892 45.5935V43.5135H97.3212V45.5935H95.2892ZM106.134 41.1775V41.0015C106.134 39.7695 105.382 39.0815 104.102 39.0815C103.126 39.0815 102.422 39.4975 101.91 39.9935H100.534L100.902 33.3215H107.446V35.0175H102.742L102.614 38.0255C103.142 37.7055 103.798 37.4335 104.758 37.4335C106.982 37.4335 108.198 39.0975 108.198 40.9535V41.1935C108.198 43.0335 106.982 45.0335 104.086 45.0335C102.422 45.0335 101.142 44.6975 99.9896 43.7535L100.982 42.1375C102.07 43.0015 102.998 43.1775 104.07 43.1775C105.478 43.1775 106.134 42.3295 106.134 41.1775ZM113.783 44.8415H111.927L118.823 33.3215H120.663L113.783 44.8415ZM112.631 33.0975C114.311 33.0975 115.367 34.1695 115.367 35.8495V36.4735C115.367 38.1535 114.311 39.2255 112.631 39.2255C110.951 39.2255 109.895 38.1535 109.895 36.4735V35.8495C109.895 34.1695 110.951 33.0975 112.631 33.0975ZM112.631 37.8655C113.527 37.8655 113.783 37.3055 113.783 36.4415V35.8815C113.783 35.0335 113.527 34.4575 112.631 34.4575C111.735 34.4575 111.479 35.0335 111.479 35.8815V36.4415C111.479 37.3055 111.735 37.8655 112.631 37.8655ZM119.975 38.8575C121.655 38.8575 122.711 39.9295 122.711 41.6095V42.2335C122.711 43.9135 121.655 44.9855 119.975 44.9855C118.295 44.9855 117.239 43.9135 117.239 42.2335V41.6095C117.239 39.9295 118.295 38.8575 119.975 38.8575ZM119.975 43.6255C120.871 43.6255 121.127 43.0655 121.127 42.2015V41.6415C121.127 40.7935 120.871 40.2175 119.975 40.2175C119.079 40.2175 118.823 40.7935 118.823 41.6415V42.2015C118.823 43.0655 119.079 43.6255 119.975 43.6255Z" fill="black"/>
<path d="M257.641 286.796V286.972C257.641 288.108 258.489 288.796 259.561 288.796C260.649 288.796 261.481 288.108 261.481 286.972V286.796C261.481 285.708 260.713 285.052 259.561 285.052C258.425 285.052 257.641 285.708 257.641 286.796ZM257.337 292.124V292.3C257.337 293.388 258.201 294.124 259.577 294.124C260.953 294.124 261.785 293.388 261.785 292.3V292.124C261.785 290.876 260.841 290.188 259.577 290.188C258.329 290.188 257.337 290.844 257.337 292.124ZM255.705 292.38V292.108C255.705 290.844 256.585 289.788 257.689 289.452C256.585 288.924 256.041 287.884 256.041 286.908V286.684C256.041 285.036 257.305 283.66 259.561 283.66C261.785 283.66 263.081 285.036 263.081 286.684V286.908C263.081 287.884 262.553 288.876 261.433 289.452C262.553 289.788 263.417 290.844 263.417 292.108V292.38C263.417 294.22 261.977 295.548 259.561 295.548C257.145 295.548 255.705 294.22 255.705 292.38ZM265.887 296.028V294.188H267.711V296.028H265.887ZM278.094 291.66V291.9C278.094 293.596 276.958 295.548 274.078 295.548C272.51 295.548 271.246 295.132 270.158 294.268L270.942 293.004C272.046 293.868 273.038 294.108 274.11 294.108C275.79 294.108 276.51 292.972 276.51 291.9V291.708C276.51 290.172 275.662 289.42 274.19 289.42C273.214 289.42 272.446 289.836 271.934 290.332H270.718L271.086 283.836H277.342V285.196H272.526L272.35 288.796C272.862 288.412 273.694 288.092 274.654 288.092C276.846 288.092 278.094 289.708 278.094 291.66ZM283.331 295.356H281.891L288.787 283.836H290.211L283.331 295.356ZM282.547 283.66C284.163 283.66 285.155 284.684 285.155 286.364V287.036C285.155 288.716 284.163 289.74 282.547 289.74C280.931 289.74 279.939 288.716 279.939 287.036V286.364C279.939 284.684 280.931 283.66 282.547 283.66ZM282.547 288.652C283.459 288.652 283.907 288.108 283.907 287.004V286.396C283.907 285.308 283.459 284.748 282.547 284.748C281.635 284.748 281.187 285.308 281.187 286.396V287.004C281.187 288.108 281.635 288.652 282.547 288.652ZM289.571 289.42C291.187 289.42 292.179 290.444 292.179 292.124V292.796C292.179 294.476 291.187 295.5 289.571 295.5C287.955 295.5 286.963 294.476 286.963 292.796V292.124C286.963 290.444 287.955 289.42 289.571 289.42ZM289.571 294.412C290.483 294.412 290.931 293.868 290.931 292.764V292.156C290.931 291.068 290.483 290.508 289.571 290.508C288.659 290.508 288.211 291.068 288.211 292.156V292.764C288.211 293.868 288.659 294.412 289.571 294.412Z" fill="black"/>
</svg>
