<svg width="20" height="13" viewBox="0 0 20 13" fill="none" xmlns="http://www.w3.org/2000/svg">
<g clip-path="url(#clip0_429_3142)">
<path d="M10.3893 2.48678C12.6003 2.48678 14.7343 3.15974 16.2447 4.10163C17.3897 4.815 18.0719 5.69926 18.0719 6.46098C18.0719 7.22271 17.3897 8.10697 16.2447 8.82034C14.7343 9.76223 12.6003 10.4352 10.3893 10.4352C8.17822 10.4352 6.02649 9.75428 4.51606 8.81239C3.37168 8.09902 2.70664 7.22271 2.70664 6.46098C2.70664 5.69926 3.37168 4.75671 4.51606 4.04334C6.53313 2.85108 8.17822 2.48678 10.3893 2.48678ZM10.3893 0.466553C4.99067 0.466553 0.778564 3.2485 0.778564 6.46098C0.778564 9.67347 5.08144 12.3892 10.3893 12.3892C15.6971 12.3892 19.9407 9.60723 20 6.46098C20 3.18226 15.4319 0.53279 10.3893 0.466553Z" fill="#95989D"/>
<path d="M10.3892 4.46628C11.4918 4.46628 12.3263 5.36996 12.3263 6.47993C12.3263 7.5899 11.4918 8.49358 10.3892 8.49358C9.28658 8.49358 8.45216 7.5899 8.45216 6.47993C8.45216 5.36996 9.28658 4.46628 10.3892 4.46628ZM10.3892 2.52051C8.26621 2.52051 6.54492 4.29326 6.54492 6.47993C6.54492 8.66659 8.26621 10.4393 10.3892 10.4393C12.5122 10.4393 14.2335 8.66659 14.2335 6.47993C14.2335 4.29326 12.5122 2.52051 10.3892 2.52051Z" fill="#95989D"/>
</g>
<defs>
<clipPath id="clip0_429_3142">
<path d="M0.778564 6.42787C0.778564 3.13552 3.44754 0.466553 6.73988 0.466553H14.0387C17.331 0.466553 20 3.13552 20 6.42787C20 9.72021 17.331 12.3892 14.0387 12.3892H6.73988C3.44753 12.3892 0.778564 9.72021 0.778564 6.42787Z" fill="white"/>
</clipPath>
</defs>
</svg>
