<svg width="20" height="19" viewBox="0 0 20 19" fill="none" xmlns="http://www.w3.org/2000/svg">
<g clip-path="url(#clip0_487_34)">
<path d="M10.389 4.48678C12.6001 4.48678 14.734 5.15974 16.2445 6.10163C17.3894 6.815 18.0717 7.69926 18.0717 8.46098C18.0717 9.22271 17.3894 10.107 16.2445 10.8203C14.734 11.7622 12.6001 12.4352 10.389 12.4352C8.17798 12.4352 6.02624 11.7543 4.51582 10.8124C3.37143 10.099 2.7064 9.22271 2.7064 8.46098C2.7064 7.69926 3.37143 6.75671 4.51582 6.04334C6.53288 4.85108 8.17798 4.48678 10.389 4.48678ZM10.389 2.46655C4.99042 2.46655 0.77832 5.2485 0.77832 8.46098C0.77832 11.6735 5.08119 14.3892 10.389 14.3892C15.6969 14.3892 19.9404 11.6072 19.9997 8.46098C19.9997 5.18226 15.4317 2.53279 10.389 2.46655Z" fill="#95989D"/>
<path d="M10.3892 6.46628C11.4918 6.46628 12.3263 7.36996 12.3263 8.47993C12.3263 9.5899 11.4918 10.4936 10.3892 10.4936C9.28658 10.4936 8.45216 9.5899 8.45216 8.47993C8.45216 7.36996 9.28658 6.46628 10.3892 6.46628ZM10.3892 4.52051C8.26621 4.52051 6.54492 6.29326 6.54492 8.47993C6.54492 10.6666 8.26621 12.4393 10.3892 12.4393C12.5122 12.4393 14.2335 10.6666 14.2335 8.47993C14.2335 6.29326 12.5122 4.52051 10.3892 4.52051Z" fill="#95989D"/>
</g>
<line x1="18.7071" y1="0.707107" x2="1.70711" y2="17.7071" stroke="#95989D" stroke-width="2"/>
<defs>
<clipPath id="clip0_487_34">
<path d="M0.77832 8.42787C0.77832 5.13552 3.44729 2.46655 6.73963 2.46655H14.0384C17.3308 2.46655 19.9997 5.13552 19.9997 8.42787C19.9997 11.7202 17.3308 14.3892 14.0384 14.3892H6.73963C3.44729 14.3892 0.77832 11.7202 0.77832 8.42787Z" fill="white"/>
</clipPath>
</defs>
</svg>
