<svg width="153" height="28" viewBox="0 0 153 28" fill="none" xmlns="http://www.w3.org/2000/svg">
<mask id="mask0_429_3232" style="mask-type:alpha" maskUnits="userSpaceOnUse" x="0" y="0" width="153" height="28">
<path fill-rule="evenodd" clip-rule="evenodd" d="M84.9997 0.111572H79.333V27.3115H79.3332L79.3332 27.312L96.3332 27.312V21.872H84.9997V0.111572Z" fill="black"/>
<path fill-rule="evenodd" clip-rule="evenodd" d="M59.4999 0.111572H48.1669V5.55152H42.5002V0.111572H42.4999V0.111614H25.5002V0.111657H25.4995V27.3116H31.1662V16.4322L42.5002 16.4322V27.3115H48.1669V16.4321L59.4999 16.4321V27.3115H65.1666V16.4321L76.5 16.4321V10.9921L65.1666 10.9921V5.55157L76.5 5.55157V0.111572H65.1666V5.55152H59.4999V0.111572ZM48.1669 5.55157L59.4999 5.55157V10.9921L48.1669 10.9921V5.55157ZM42.4999 10.9921H42.5002V5.55161L31.1662 5.55161V10.9922L42.4999 10.9922V10.9921Z" fill="black"/>
<path fill-rule="evenodd" clip-rule="evenodd" d="M134.09 6.34905L134.093 6.35032L135.668 0.656006H138.139L139.89 6.98938L139.891 6.98892L142.917 17.9929L147.685 0.656006H153L145.669 27.3119H140.166L136.902 15.446L133.639 27.3119H128.136L120.805 0.656006H126.12L130.888 17.9929L134.09 6.34905Z" fill="black"/>
<path fill-rule="evenodd" clip-rule="evenodd" d="M11.3333 0.111572C5.0741 0.111572 0 5.18568 0 11.4449V15.9782C0 22.2374 5.0741 27.3115 11.3333 27.3115C17.5925 27.3115 22.6666 22.2374 22.6666 15.9782V11.4449C22.6666 5.18567 17.5925 0.111572 11.3333 0.111572ZM11.333 5.00781C7.89047 5.00781 5.09972 7.79857 5.09972 11.2411V16.1825C5.09972 19.625 7.89047 22.4158 11.333 22.4158C14.7756 22.4158 17.5664 19.625 17.5664 16.1825V11.2411C17.5664 7.79857 14.7756 5.00781 11.333 5.00781Z" fill="black"/>
<path fill-rule="evenodd" clip-rule="evenodd" d="M109.366 0.111572C103.107 0.111572 98.0327 5.18568 98.0327 11.4449V15.9782C98.0327 22.2374 103.107 27.3115 109.366 27.3115C115.625 27.3115 120.699 22.2374 120.699 15.9782V11.4449C120.699 5.18567 115.625 0.111572 109.366 0.111572ZM109.366 5.00783C105.924 5.00783 103.133 7.79858 103.133 11.2411V16.1825C103.133 19.625 105.924 22.4158 109.366 22.4158C112.809 22.4158 115.6 19.6251 115.6 16.1825V11.2412C115.6 7.79858 112.809 5.00783 109.366 5.00783Z" fill="black"/>
</mask>
<g mask="url(#mask0_429_3232)">
<rect x="-11.3335" y="-6.96045" width="170" height="41.344" fill="#004BD6"/>
</g>
</svg>
