<svg width="68" height="68" viewBox="0 0 68 68" fill="none" xmlns="http://www.w3.org/2000/svg">
<path d="M0 18.7931C0 8.41396 8.41395 0 18.7931 0H49.2069C59.586 0 68 8.41395 68 18.7931V49.2069C68 59.586 59.5861 68 49.2069 68H18.7931C8.41396 68 0 59.586 0 49.2069V18.7931Z" fill="#004BD6"/>
<path d="M17.7087 41.0833L17.7087 43.0313C17.7087 46.2587 20.3251 48.875 23.5525 48.875L43.0317 48.875C46.2591 48.875 48.8754 46.2587 48.8754 43.0312L48.8754 41.0833M41.0837 25.5L33.2921 17.7083M33.2921 17.7083L25.5004 25.5M33.2921 17.7083L33.2921 41.0833" stroke="white" stroke-width="4" stroke-linecap="round" stroke-linejoin="round"/>
</svg>
